<?xml version="1.0" encoding="UTF-8" standalone="no"?>
<!-- Created with Inkscape (http://www.inkscape.org/) -->

<svg
   xmlns:dc="http://purl.org/dc/elements/1.1/"
   xmlns:cc="http://creativecommons.org/ns#"
   xmlns:rdf="http://www.w3.org/1999/02/22-rdf-syntax-ns#"
   xmlns:svg="http://www.w3.org/2000/svg"
   xmlns="http://www.w3.org/2000/svg"
   xmlns:sodipodi="http://sodipodi.sourceforge.net/DTD/sodipodi-0.dtd"
   xmlns:inkscape="http://www.inkscape.org/namespaces/inkscape"
   id="svg3055"
   version="1.1"
   inkscape:version="0.48.4 r9939"
   width="1024"
   height="1024"
   sodipodi:docname="menu.svg">
  <metadata
     id="metadata3061">
    <rdf:RDF>
      <cc:Work
         rdf:about="">
        <dc:format>image/svg+xml</dc:format>
        <dc:type
           rdf:resource="http://purl.org/dc/dcmitype/StillImage" />
      </cc:Work>
    </rdf:RDF>
  </metadata>
  <defs
     id="defs3059" />
  <sodipodi:namedview
     pagecolor="#ffffff"
     bordercolor="#666666"
     borderopacity="1"
     objecttolerance="10"
     gridtolerance="10"
     guidetolerance="10"
     inkscape:pageopacity="0"
     inkscape:pageshadow="2"
     inkscape:window-width="1855"
     inkscape:window-height="1056"
     id="namedview3057"
     showgrid="false"
     inkscape:zoom="0.4609375"
     inkscape:cx="1554.3017"
     inkscape:cy="409.07358"
     inkscape:window-x="65"
     inkscape:window-y="24"
     inkscape:window-maximized="1"
     inkscape:current-layer="svg3055" />
  <g
     id="g3114"
     transform="matrix(0.9988518,0,0,1.0002166,-11.601508,-1.467134)">
    <path
       inkscape:connector-curvature="0"
       id="path3065"
       d="m 111.56886,300.99237 c -3.9428,-0.95444 -7.68207,-2.25309 -8.3095,-2.88589 -0.62743,-0.6328 -2.04782,-1.15054 -3.15641,-1.15054 -2.97719,0 -17.57489,-9.75049 -22.154724,-14.79817 C 66.771785,269.8396 59.67619,252.18927 59.67619,236.70596 c 0,-24.44989 16.127318,-48.84085 39.63771,-59.94809 l 10.21931,-4.828 413.42976,0 c 358.92394,0 414.33986,0.29627 420.33303,2.24722 10.86475,3.5368 19.92225,9.31534 28.22211,18.00524 5.68355,5.95065 6.92376,7.7686 12.02601,17.62833 4.76478,9.20764 5.00638,10.49051 5.00068,26.54982 -0.01,16.03476 -0.2631,17.40123 -5.17084,27.45333 -4.49448,9.20569 -15.08801,21.84325 -23.32283,27.82298 -4.42257,3.21146 -14.46876,7.31325 -22.78215,9.30179 -11.52612,2.75701 -814.31701,2.80931 -825.70012,0.0538 l 0,0 z"
       style="fill:#666666;fill-opacity:1;stroke:none" />
    <path
       inkscape:connector-curvature="0"
       id="path3067"
       d="M 107.91573,576.95489 C 96.61361,573.38391 88.44277,568.28408 79.758176,559.38036 68.17315,547.50302 68.237635,547.60466 63.682328,534.0418 c -5.227478,-15.56417 -5.181384,-25.64101 0.192956,-42.18289 3.67149,-11.30062 5.393164,-14.1793 13.429201,-22.45396 5.069787,-5.22033 12.324265,-11.15424 16.121075,-13.18647 16.32565,-8.73825 -14.531715,-8.15742 433.37256,-8.15742 l 412.66272,0 12.00191,6.04183 c 18.40187,9.26362 29.05446,21.24707 34.85805,39.213 2.7802,8.60649 2.9809,34.75896 0.3103,40.42451 -1.0535,2.23481 -2.77833,5.9617 -3.833,8.28197 -1.05467,2.32027 -2.78049,5.13089 -3.83515,6.24582 -1.05467,1.11494 -1.91758,2.61504 -1.91758,3.33356 0,2.28557 -12.78702,13.96784 -19.79471,18.08451 -3.71535,2.18258 -10.5532,5.22131 -15.19523,6.75272 -8.07317,2.66336 -26.25148,2.7778 -418.18005,2.63272 -328.48779,-0.12159 -410.97335,-0.54136 -415.95965,-2.11681 z"
       style="fill:#666666;fill-opacity:1;stroke:none" />
    <path
       inkscape:connector-curvature="0"
       id="path3069"
       d="M 114.90243,854.30451 C 99.23885,851.64262 87.30127,844.79309 75.54492,831.722 66.444959,821.60436 59.659911,803.41019 59.670032,789.15333 c 0.007,-9.82349 5.413707,-27.47569 10.81279,-35.30219 5.914437,-8.57356 18.643838,-19.66946 27.544918,-24.01022 l 8.43735,-4.11461 418.03194,0 418.03194,0 8.43734,4.10405 c 15.93453,7.75081 30.30311,23.84561 35.36769,39.61672 4.6488,14.47645 2.327,38.44503 -5.02434,51.86662 -7.21169,13.16668 -20.21404,24.4273 -35.28828,30.56118 -6.17308,2.51191 -30.79603,2.68173 -416.92217,2.87548 -225.69889,0.11325 -412.08745,-0.0874 -414.19678,-0.44585 z"
       style="fill:#666666;fill-opacity:1;stroke:none" />
  </g>
</svg>
