<?xml version="1.0" encoding="UTF-8" standalone="no"?>
<!-- Created with Inkscape (http://www.inkscape.org/) -->

<svg
   xmlns:dc="http://purl.org/dc/elements/1.1/"
   xmlns:cc="http://creativecommons.org/ns#"
   xmlns:rdf="http://www.w3.org/1999/02/22-rdf-syntax-ns#"
   xmlns:svg="http://www.w3.org/2000/svg"
   xmlns="http://www.w3.org/2000/svg"
   xmlns:sodipodi="http://sodipodi.sourceforge.net/DTD/sodipodi-0.dtd"
   xmlns:inkscape="http://www.inkscape.org/namespaces/inkscape"
   width="1024"
   height="1024"
   id="svg2"
   version="1.1"
   inkscape:version="0.48.4 r9939"
   sodipodi:docname="undo.svg">
  <defs
     id="defs4">
    <filter
       id="filter3158"
       inkscape:label="filter1">
      <feFlood
         id="feFlood3160" />
    </filter>
  </defs>
  <sodipodi:namedview
     id="base"
     pagecolor="#ffffff"
     bordercolor="#666666"
     borderopacity="1.0"
     inkscape:pageopacity="0.0"
     inkscape:pageshadow="2"
     inkscape:zoom="0.35000001"
     inkscape:cx="989.11253"
     inkscape:cy="445.04759"
     inkscape:document-units="px"
     inkscape:current-layer="g3867"
     showgrid="false"
     inkscape:window-width="995"
     inkscape:window-height="790"
     inkscape:window-x="816"
     inkscape:window-y="8"
     inkscape:window-maximized="0" />
  <metadata
     id="metadata7">
    <rdf:RDF>
      <cc:Work
         rdf:about="">
        <dc:format>image/svg+xml</dc:format>
        <dc:type
           rdf:resource="http://purl.org/dc/dcmitype/StillImage" />
        <dc:title />
      </cc:Work>
    </rdf:RDF>
  </metadata>
  <g
     inkscape:label="Layer 1"
     inkscape:groupmode="layer"
     id="layer1"
     transform="translate(0,-28.362183)">
    <path
       style="fill:#000000"
       d=""
       id="path3152"
       inkscape:connector-curvature="0" />
    <path
       style="fill:none"
       d="m 426.5,778.35618 c 81.04112,-0.004 135.14794,-0.81692 146.5,-2.20228 C 661.6401,765.33656 731.9599,693.34038 739.65974,605.52108 748.59266,503.63784 674.89248,413.00434 573,400.56974 c -11.37846,-1.38858 -66.00612,-2.19872 -148.5,-2.20228 l -130.5,-0.005 0,49 c 0,37.9516 -0.56554,49 -2.50816,49 -1.37948,0 -43.9008,-41.4 -94.49184,-92 l -91.9837,-92 91.9837,-92 c 50.59104,-50.6 93.11236,-92 94.49184,-92 1.94108,0 2.50816,10.83171 2.50816,47.90714 l 0,47.90714 152.5,0.64448 c 150.24898,0.63496 152.82474,0.71249 174.5,5.25232 59.36638,12.43418 111.1809,36.10834 155.92178,71.24098 20.82986,16.35658 53.25912,49.66494 68.56004,70.41856 94.0863,127.61528 94.0863,305.64348 0,433.25876 -15.30092,20.75362 -47.73018,54.06198 -68.56004,70.41856 C 732.17962,910.54404 680.35818,934.22096 621,946.65016 480.39447,1072.3113 184.65881,796.10598 426.5,778.35618 z M 612.60578,943.74174 C 665.8804,932.7831 708.2273,915.76716 749,888.93548 861.3487,815.00114 924.34586,682.5767 909.86628,550.78336 893.7636,404.21658 788.20282,279.77918 647.44194,241.43168 603.46354,229.45064 609.67868,229.83076 443.5366,228.9605 L 290.07322,228.15666 289.5366,182.56538 289,136.9741 l -89,87.92253 -89,87.92253 89,87.61472 89,87.61472 0.53646,-46.95084 0.53644,-46.95086 145.46356,0.67874 145.46354,0.67874 19.02296,5.19268 c 48.26274,13.17426 85.98864,40.01774 112.73552,80.21582 18.33048,27.549 27.96248,54.84246 31.11554,88.16958 5.62476,59.45238 -14.16984,115.16174 -55.66218,156.65408 -24.76328,24.76328 -52.41174,40.5287 -88.18888,50.28618 L 581,781.21084 441.5,781.8982 302,782.58556 l 0,82.99476 0,82.99478 147.5,-0.81162 c 125.34196,-0.6897 149.84436,-1.29386 163.10578,-4.02174 z"
       id="path2988"
       inkscape:connector-curvature="0"
       sodipodi:nodetypes="csssscssscssscssssssccssssscccccccccccssssscccccss" />
    <path
       style="fill:#000000"
       d=""
       id="path3093"
       inkscape:connector-curvature="0" />
    <path
       style="fill:#000000"
       d=""
       id="path3091"
       inkscape:connector-curvature="0" />
    <path
       style="fill:#000000"
       d=""
       id="path3089"
       inkscape:connector-curvature="0" />
    <path
       style="fill:#000000"
       d=""
       id="path3087"
       inkscape:connector-curvature="0" />
    <path
       style="fill:#000000"
       d=""
       id="path3085"
       inkscape:connector-curvature="0" />
    <g
       id="g3843"
       transform="translate(250,0)">
      <g
         id="g3851"
         transform="translate(-250,0)">
        <g
           id="g3859"
           style="fill:#666666">
          <g
             id="g3867">
            <g
               id="g3875"
               transform="matrix(0.99939431,0,0,0.83051002,1.4096283,92.53772)">
              <g
                 id="g3831"
                 transform="matrix(1,0,0,1.0015223,0,-0.194887)"
                 style="fill:#666666">
                <g
                   id="g3836"
                   style="fill:#666666">
                  <rect
                     style="color:#000000;fill:#666666;fill-opacity:1;fill-rule:nonzero;stroke:none;stroke-width:0.99081868;marker:none;visibility:visible;display:inline;overflow:visible;enable-background:accumulate"
                     id="rect3164"
                     width="264.06937"
                     height="168.62811"
                     x="292.78183"
                     y="226.49796" />
                  <rect
                     style="color:#000000;fill:#666666;fill-opacity:1;fill-rule:nonzero;stroke:none;stroke-width:0.99081868;marker:none;visibility:visible;display:inline;overflow:visible;enable-background:accumulate"
                     id="rect3164-8"
                     width="264.70071"
                     height="168.81476"
                     x="300.14648"
                     y="780.34454"
                     ry="0.71320003" />
                  <path
                     sodipodi:nodetypes="cccc"
                     style="fill:#666666;stroke:none"
                     d="m 297.47785,128.02309 -187.82106,183.53425 187.653,182.57718 z"
                     id="path3188"
                     inkscape:connector-curvature="0" />
                </g>
              </g>
              <path
                 sodipodi:nodetypes="cccccccccccccccccccccccccccccccccccccc"
                 transform="translate(0,28.362183)"
                 inkscape:connector-curvature="0"
                 id="path3841"
                 d="m 553.92857,367.39286 37.32143,2.67857 41.78571,14.46429 34.10714,20.17857 32.67857,31.78571 25.89286,39.82143 13.21429,36.25 6.42857,46.07143 -2.14286,27.5 -14.10714,51.60714 -19.64286,32.85714 -23.57143,29.46429 -47.32143,33.21429 -32.14285,12.5 -53.03571,7.85714 10,168.40368 55.35714,-6.61797 53.75,-14.28571 52.67857,-23.39286 54.71809,-38.74384 48.67476,-47.14902 28.57143,-37.5 L 885,699.89286 904.82142,637.75 l 7.32143,-65.71428 -3.57143,-70.35715 -9.82143,-41.96428 -15.17857,-41.78572 -15.35714,-31.78571 -11.78571,-20.53571 -32.5,-42.85715 -21.60715,-22.14285 -33.39285,-28.75 -47.5,-30 -42.63742,-21.39268 -47.95089,-13.67787 -74.80293,-8.51934 z"
                 style="fill:#666666;stroke:none" />
            </g>
          </g>
        </g>
      </g>
    </g>
  </g>
</svg>
